<?xml version="1.0" standalone="no"?>
<!DOCTYPE svg PUBLIC "-//W3C//DTD SVG 20010904//EN"
 "http://www.w3.org/TR/2001/REC-SVG-20010904/DTD/svg10.dtd">
<svg version="1.0" xmlns="http://www.w3.org/2000/svg"
 width="100.000000pt" height="100.000000pt" viewBox="0 0 100.000000 100.000000"
 preserveAspectRatio="xMidYMid meet">
<metadata>
Created by potrace 1.16, written by Peter Selinger 2001-2019
</metadata>
<g transform="translate(0.000000,100.000000) scale(0.100000,-0.100000)"
fill="#000000" stroke="none">
<path d="M0 500 l0 -500 500 0 500 0 0 500 0 500 -500 0 -500 0 0 -500z m256
299 c83 -50 86 -51 132 -40 96 21 129 22 200 6 l71 -16 79 50 c86 55 97 59
106 35 11 -30 6 -161 -9 -209 -8 -27 -12 -52 -9 -57 4 -5 -10 -6 -31 -2 -30 5
-36 4 -30 -6 6 -10 1 -11 -21 -6 -25 6 -27 6 -12 -6 16 -12 15 -17 -17 -68
-19 -30 -30 -57 -24 -58 19 -7 60 8 53 20 -4 7 -3 8 4 4 10 -6 41 22 77 70 12
17 13 13 13 -39 -1 -54 -3 -58 -32 -73 -19 -9 -26 -10 -18 -2 6 6 12 23 12 37
l0 25 -31 -30 c-28 -27 -37 -29 -114 -32 l-83 -4 -24 41 c-36 65 -72 65 -98 1
-15 -37 -41 -44 -127 -37 -44 3 -74 12 -94 26 -35 26 -38 26 -32 -1 4 -21 3
-21 -7 -5 -6 9 -15 15 -20 12 -5 -3 -12 -1 -15 5 -4 6 -1 9 6 8 6 -2 14 3 16
10 3 7 1 11 -4 10 -10 -4 -13 5 -13 39 l0 27 24 -33 c13 -18 27 -28 30 -23 3
6 15 8 26 5 11 -3 20 0 20 6 0 6 -7 11 -16 11 -12 0 -10 7 11 31 32 39 21 57
-26 40 -17 -6 -37 -11 -44 -11 -27 0 -64 242 -42 278 13 19 24 15 113 -39z"/>
<path d="M181 738 c2 -77 12 -103 37 -101 19 2 21 -1 16 -21 l-6 -24 129 -7
c70 -4 180 -4 243 -1 63 4 126 7 139 7 20 -1 22 3 17 24 -7 26 3 32 21 14 8
-8 13 1 17 33 4 23 9 54 12 68 2 14 0 31 -5 39 -7 11 -21 6 -71 -28 l-63 -43
-56 19 c-71 23 -172 23 -232 0 l-46 -17 -69 40 c-38 22 -72 40 -76 40 -5 0 -7
-19 -7 -42z"/>
<path d="M511 561 l-113 -6 -43 -65 -43 -65 40 -7 c23 -4 49 -3 59 3 21 11 25
34 9 44 -5 3 -10 11 -10 18 0 8 3 8 11 0 15 -15 39 -5 32 14 -5 12 -7 12 -15
1 -8 -11 -9 -10 -6 1 2 8 12 15 21 17 10 1 14 -2 11 -8 -4 -7 -2 -8 4 -4 19
12 14 26 -10 27 -16 1 -11 4 15 11 39 11 72 5 62 -11 -3 -6 3 -15 12 -21 18
-11 12 -10 -47 7 -8 3 -6 -1 5 -8 11 -6 27 -20 36 -31 15 -20 17 -19 50 23 19
24 37 46 41 47 10 5 10 23 1 20 -5 -1 -59 -4 -122 -7z"/>
</g>
</svg>
