<?xml version="1.0" standalone="no"?>
<!DOCTYPE svg PUBLIC "-//W3C//DTD SVG 20010904//EN"
 "http://www.w3.org/TR/2001/REC-SVG-20010904/DTD/svg10.dtd">
<svg version="1.0" xmlns="http://www.w3.org/2000/svg"
 width="100.000000pt" height="100.000000pt" viewBox="0 0 100.000000 100.000000"
 preserveAspectRatio="xMidYMid meet">
<metadata>
Created by potrace 1.16, written by Peter Selinger 2001-2019
</metadata>
<g transform="translate(0.000000,100.000000) scale(0.100000,-0.100000)"
fill="#000000" stroke="none">
<path d="M0 500 l0 -500 28 0 c22 0 36 10 61 45 18 25 35 45 38 45 3 0 -6 -15
-19 -32 -46 -61 -51 -58 100 -58 l138 0 14 52 c15 61 25 51 11 -11 l-9 -41
140 0 140 0 -4 25 c-7 33 8 33 16 0 l6 -25 135 0 c76 0 135 4 135 9 0 5 -7 17
-16 25 -8 9 -11 16 -4 16 6 0 16 -11 22 -25 8 -18 19 -25 40 -25 l28 0 0 500
0 500 -500 0 -500 0 0 -500z m256 299 c83 -50 86 -51 132 -41 95 21 122 22
196 7 l76 -16 78 51 c86 54 97 58 106 34 11 -29 6 -160 -7 -205 -9 -31 -11
-53 -5 -70 10 -25 5 -149 -7 -186 -6 -19 -4 -23 13 -23 11 0 25 -7 32 -15 11
-13 7 -13 -26 1 -23 10 -40 12 -42 6 -2 -6 -14 -23 -27 -38 -13 -15 -21 -33
-18 -38 3 -6 3 -8 -2 -4 -4 4 -21 -3 -36 -17 -16 -13 -46 -34 -68 -46 -23 -13
-38 -28 -36 -38 1 -9 0 -10 -2 -2 -4 10 -13 11 -36 5 -41 -10 -115 -10 -148
-1 -23 8 -27 5 -37 -25 l-11 -33 5 35 c5 33 3 36 -48 67 -57 34 -138 106 -138
123 0 5 -10 10 -21 10 -16 0 -19 3 -11 13 17 21 -1 39 -34 33 l-29 -6 27 11
c23 9 27 15 22 34 -3 13 -1 54 5 92 8 56 8 77 -5 118 -17 54 -23 182 -11 203
13 19 24 15 113 -39z m619 -409 c13 -6 15 -9 5 -9 -8 0 -22 4 -30 9 -18 12 -2
12 25 0z m-725 -54 c0 -2 -7 -7 -16 -10 -8 -3 -12 -2 -9 4 6 10 25 14 25 6z
m684 -45 c-2 -3 -12 3 -22 13 -16 17 -16 18 5 5 12 -7 20 -15 17 -18z m-14
-111 c12 -16 19 -30 16 -30 -2 0 -14 14 -26 30 -12 17 -19 30 -16 30 2 0 14
-13 26 -30z m40 -55 c11 -13 10 -14 -4 -9 -9 3 -16 10 -16 15 0 13 6 11 20 -6z
m-700 1 c0 -2 -8 -10 -17 -17 -16 -13 -17 -12 -4 4 13 16 21 21 21 13z m479
-51 l0 -20 -9 20 c-5 11 -9 29 -9 40 l0 20 9 -20 c5 -11 9 -29 9 -40z m251 5
c6 -11 8 -20 6 -20 -3 0 -10 9 -16 20 -6 11 -8 20 -6 20 3 0 10 -9 16 -20z"/>
<path d="M180 749 c0 -24 5 -61 11 -82 8 -31 14 -37 30 -32 21 7 23 2 9 -24
-8 -17 -1 -19 88 -24 123 -9 264 -9 369 0 75 5 81 7 73 24 -14 26 -12 31 9 24
20 -6 24 3 36 87 4 26 4 51 1 57 -4 6 -33 -8 -73 -36 l-66 -46 -51 19 c-65 24
-185 25 -240 1 -39 -17 -39 -17 -95 14 -31 18 -66 39 -78 47 -23 14 -23 14
-23 -29z"/>
<path d="M618 563 c7 -3 16 -2 19 1 4 3 -2 6 -13 5 -11 0 -14 -3 -6 -6z"/>
<path d="M528 553 c6 -2 18 -2 25 0 6 3 1 5 -13 5 -14 0 -19 -2 -12 -5z"/>
<path d="M465 509 c-3 -4 2 -6 10 -5 21 3 28 13 10 13 -9 0 -18 -4 -20 -8z"/>
<path d="M521 498 c8 -7 19 -19 24 -25 8 -10 11 -8 11 6 0 11 -4 18 -7 15 -4
-2 -10 0 -14 6 -3 5 -11 10 -18 10 -6 0 -5 -5 4 -12z"/>
<path d="M453 448 l-29 -43 -82 0 c-69 1 -86 4 -112 24 -38 27 -44 24 -25 -12
8 -15 11 -27 8 -27 -3 0 0 -7 7 -15 7 -8 16 -12 21 -9 5 3 6 -1 3 -9 -7 -19
69 -85 144 -125 91 -49 155 -43 262 25 53 34 122 108 120 127 -1 5 5 13 14 18
9 5 16 21 16 35 l0 27 -31 -30 c-28 -27 -37 -29 -114 -32 l-83 -4 -27 46 c-34
58 -55 59 -92 4z m37 -77 c-30 -8 -32 -30 -5 -45 10 -6 27 -20 36 -31 15 -17
21 -19 48 -8 38 14 41 -1 4 -21 -24 -12 -30 -12 -50 2 -19 12 -29 13 -49 3
-33 -15 -46 -14 -70 5 -18 15 -17 15 18 10 47 -6 69 15 44 42 -28 32 -17 51
29 50 15 0 14 -2 -5 -7z m170 5 c0 -2 -7 -7 -16 -10 -8 -3 -12 -2 -9 4 6 10
25 14 25 6z m27 -22 c-3 -3 -12 -4 -19 -1 -8 3 -5 6 6 6 11 1 17 -2 13 -5z"/>
<path d="M425 467 c-5 -7 -11 -21 -12 -32 -1 -20 -1 -20 13 -1 8 11 14 26 14
33 0 16 -2 16 -15 0z"/>
</g>
</svg>
